<svg baseProfile="full" height="400" version="1.1" width="800" xmlns="http://www.w3.org/2000/svg" xmlns:ev="http://www.w3.org/2001/xml-events" xmlns:xlink="http://www.w3.org/1999/xlink"><defs /><rect fill="#000000" fill-opacity="0.0" height="400" rx="20" ry="20" width="800" x="0" y="0" /><text fill="#cdd6f4" fill-opacity="1" style="font-size: 20px; font-family: Arial" text-anchor="middle" x="400.0" y="30.0">Vince Warren Pradas's Repo Traffic Stats</text><line stroke="#414868" stroke-opacity="1" x1="60" x2="750" y1="320" y2="320" /><line stroke="#414868" stroke-opacity="1" x1="60" x2="60" y1="60" y2="320" /><line opacity="0.5" stroke="#414868" stroke-dasharray="5,5" stroke-opacity="1" stroke-width="1" x1="60" x2="750" y1="320.0" y2="320.0" /><text fill="#cdd6f4" fill-opacity="1" style="font-size: 12px; font-family: Arial" text-anchor="end" x="50" y="325.0">0</text><line opacity="0.5" stroke="#414868" stroke-dasharray="5,5" stroke-opacity="1" stroke-width="1" x1="60" x2="750" y1="255.0" y2="255.0" /><text fill="#cdd6f4" fill-opacity="1" style="font-size: 12px; font-family: Arial" text-anchor="end" x="50" y="260.0">50</text><line opacity="0.5" stroke="#414868" stroke-dasharray="5,5" stroke-opacity="1" stroke-width="1" x1="60" x2="750" y1="190.0" y2="190.0" /><text fill="#cdd6f4" fill-opacity="1" style="font-size: 12px; font-family: Arial" text-anchor="end" x="50" y="195.0">100</text><line opacity="0.5" stroke="#414868" stroke-dasharray="5,5" stroke-opacity="1" stroke-width="1" x1="60" x2="750" y1="125.0" y2="125.0" /><text fill="#cdd6f4" fill-opacity="1" style="font-size: 12px; font-family: Arial" text-anchor="end" x="50" y="130.0">150</text><line opacity="0.5" stroke="#414868" stroke-dasharray="5,5" stroke-opacity="1" stroke-width="1" x1="60" x2="750" y1="60.0" y2="60.0" /><text fill="#cdd6f4" fill-opacity="1" style="font-size: 12px; font-family: Arial" text-anchor="end" x="50" y="65.0">200</text><line opacity="0.5" stroke="#414868" stroke-dasharray="5,5" stroke-opacity="1" stroke-width="1" x1="60.0" x2="60.0" y1="60" y2="320" /><line opacity="0.5" stroke="#414868" stroke-dasharray="5,5" stroke-opacity="1" stroke-width="1" x1="113.07692307692308" x2="113.07692307692308" y1="60" y2="320" /><line opacity="0.5" stroke="#414868" stroke-dasharray="5,5" stroke-opacity="1" stroke-width="1" x1="166.15384615384616" x2="166.15384615384616" y1="60" y2="320" /><line opacity="0.5" stroke="#414868" stroke-dasharray="5,5" stroke-opacity="1" stroke-width="1" x1="219.23076923076923" x2="219.23076923076923" y1="60" y2="320" /><line opacity="0.5" stroke="#414868" stroke-dasharray="5,5" stroke-opacity="1" stroke-width="1" x1="272.3076923076923" x2="272.3076923076923" y1="60" y2="320" /><line opacity="0.5" stroke="#414868" stroke-dasharray="5,5" stroke-opacity="1" stroke-width="1" x1="325.3846153846154" x2="325.3846153846154" y1="60" y2="320" /><line opacity="0.5" stroke="#414868" stroke-dasharray="5,5" stroke-opacity="1" stroke-width="1" x1="378.46153846153845" x2="378.46153846153845" y1="60" y2="320" /><line opacity="0.5" stroke="#414868" stroke-dasharray="5,5" stroke-opacity="1" stroke-width="1" x1="431.53846153846155" x2="431.53846153846155" y1="60" y2="320" /><line opacity="0.5" stroke="#414868" stroke-dasharray="5,5" stroke-opacity="1" stroke-width="1" x1="484.61538461538464" x2="484.61538461538464" y1="60" y2="320" /><line opacity="0.5" stroke="#414868" stroke-dasharray="5,5" stroke-opacity="1" stroke-width="1" x1="537.6923076923077" x2="537.6923076923077" y1="60" y2="320" /><line opacity="0.5" stroke="#414868" stroke-dasharray="5,5" stroke-opacity="1" stroke-width="1" x1="590.7692307692308" x2="590.7692307692308" y1="60" y2="320" /><line opacity="0.5" stroke="#414868" stroke-dasharray="5,5" stroke-opacity="1" stroke-width="1" x1="643.8461538461539" x2="643.8461538461539" y1="60" y2="320" /><line opacity="0.5" stroke="#414868" stroke-dasharray="5,5" stroke-opacity="1" stroke-width="1" x1="696.9230769230769" x2="696.9230769230769" y1="60" y2="320" /><line opacity="0.5" stroke="#414868" stroke-dasharray="5,5" stroke-opacity="1" stroke-width="1" x1="750.0" x2="750.0" y1="60" y2="320" /><circle cx="60.0" cy="160.1" fill="#8aadf4" fill-opacity="1" r="4" /><circle cx="113.07692307692308" cy="288.8" fill="#8aadf4" fill-opacity="1" r="4" /><circle cx="166.15384615384616" cy="278.4" fill="#8aadf4" fill-opacity="1" r="4" /><circle cx="219.23076923076923" cy="292.7" fill="#8aadf4" fill-opacity="1" r="4" /><circle cx="272.3076923076923" cy="290.1" fill="#8aadf4" fill-opacity="1" r="4" /><circle cx="325.3846153846154" cy="310.9" fill="#8aadf4" fill-opacity="1" r="4" /><circle cx="378.46153846153845" cy="247.2" fill="#8aadf4" fill-opacity="1" r="4" /><circle cx="431.53846153846155" cy="127.6" fill="#8aadf4" fill-opacity="1" r="4" /><circle cx="484.61538461538464" cy="256.3" fill="#8aadf4" fill-opacity="1" r="4" /><circle cx="537.6923076923077" cy="309.6" fill="#8aadf4" fill-opacity="1" r="4" /><circle cx="590.7692307692308" cy="286.2" fill="#8aadf4" fill-opacity="1" r="4" /><circle cx="643.8461538461539" cy="200.39999999999998" fill="#8aadf4" fill-opacity="1" r="4" /><circle cx="696.9230769230769" cy="257.6" fill="#8aadf4" fill-opacity="1" r="4" /><circle cx="750.0" cy="73.0" fill="#8aadf4" fill-opacity="1" r="4" /><path d="M 60.0,160.1 C 77.6923076923077,160.1 95.38461538461539,288.8 113.07692307692308,288.8 C 130.76923076923077,288.8 148.46153846153845,278.4 166.15384615384616,278.4 C 183.84615384615384,278.4 201.53846153846155,292.7 219.23076923076923,292.7 C 236.92307692307693,292.7 254.6153846153846,290.1 272.3076923076923,290.1 C 290.0,290.1 307.69230769230774,310.9 325.3846153846154,310.9 C 343.0769230769231,310.9 360.7692307692308,247.2 378.46153846153845,247.2 C 396.15384615384613,247.2 413.84615384615387,127.6 431.53846153846155,127.6 C 449.2307692307692,127.6 466.92307692307696,256.3 484.61538461538464,256.3 C 502.3076923076923,256.3 520.0,309.6 537.6923076923077,309.6 C 555.3846153846155,309.6 573.0769230769231,286.2 590.7692307692308,286.2 C 608.4615384615386,286.2 626.1538461538462,200.39999999999998 643.8461538461539,200.39999999999998 C 661.5384615384615,200.39999999999998 679.2307692307693,257.6 696.9230769230769,257.6 C 714.6153846153846,257.6 732.3076923076923,73.0 750.0,73.0" fill="none" stroke="#8aadf4" stroke-dasharray="1240.8128266830363" stroke-dashoffset="1240.8128266830363" stroke-linecap="round" stroke-linejoin="round" stroke-opacity="0.4" stroke-width="4"><animate attributeName="stroke-dashoffset" dur="2s" fill="freeze" from="1240.8128266830363" repeatCount="1" to="0" /></path><circle cx="60.0" cy="288.8" fill="#cba6f7" fill-opacity="1" r="4" /><circle cx="113.07692307692308" cy="320.0" fill="#cba6f7" fill-opacity="1" r="4" /><circle cx="166.15384615384616" cy="252.39999999999998" fill="#cba6f7" fill-opacity="1" r="4" /><circle cx="219.23076923076923" cy="206.89999999999998" fill="#cba6f7" fill-opacity="1" r="4" /><circle cx="272.3076923076923" cy="274.5" fill="#cba6f7" fill-opacity="1" r="4" /><circle cx="325.3846153846154" cy="308.3" fill="#cba6f7" fill-opacity="1" r="4" /><circle cx="378.46153846153845" cy="127.6" fill="#cba6f7" fill-opacity="1" r="4" /><circle cx="431.53846153846155" cy="161.4" fill="#cba6f7" fill-opacity="1" r="4" /><circle cx="484.61538461538464" cy="305.7" fill="#cba6f7" fill-opacity="1" r="4" /><circle cx="537.6923076923077" cy="313.5" fill="#cba6f7" fill-opacity="1" r="4" /><circle cx="590.7692307692308" cy="236.8" fill="#cba6f7" fill-opacity="1" r="4" /><circle cx="643.8461538461539" cy="262.8" fill="#cba6f7" fill-opacity="1" r="4" /><circle cx="696.9230769230769" cy="301.8" fill="#cba6f7" fill-opacity="1" r="4" /><circle cx="750.0" cy="229.0" fill="#cba6f7" fill-opacity="1" r="4" /><path d="M 60.0,288.8 C 77.6923076923077,288.8 95.38461538461539,320.0 113.07692307692308,320.0 C 130.76923076923077,320.0 148.46153846153845,252.39999999999998 166.15384615384616,252.39999999999998 C 183.84615384615384,252.39999999999998 201.53846153846155,206.89999999999998 219.23076923076923,206.89999999999998 C 236.92307692307693,206.89999999999998 254.6153846153846,274.5 272.3076923076923,274.5 C 290.0,274.5 307.69230769230774,308.3 325.3846153846154,308.3 C 343.0769230769231,308.3 360.7692307692308,127.6 378.46153846153845,127.6 C 396.15384615384613,127.6 413.84615384615387,161.4 431.53846153846155,161.4 C 449.2307692307692,161.4 466.92307692307696,305.7 484.61538461538464,305.7 C 502.3076923076923,305.7 520.0,313.5 537.6923076923077,313.5 C 555.3846153846155,313.5 573.0769230769231,236.8 590.7692307692308,236.8 C 608.4615384615386,236.8 626.1538461538462,262.8 643.8461538461539,262.8 C 661.5384615384615,262.8 679.2307692307693,301.8 696.9230769230769,301.8 C 714.6153846153846,301.8 732.3076923076923,229.0 750.0,229.0" fill="none" stroke="#cba6f7" stroke-dasharray="1159.561586468749" stroke-dashoffset="1159.561586468749" stroke-linecap="round" stroke-linejoin="round" stroke-opacity="0.4" stroke-width="4"><animate attributeName="stroke-dashoffset" dur="2s" fill="freeze" from="1159.561586468749" repeatCount="1" to="0" /></path><text fill="#cdd6f4" fill-opacity="1" style="font-size: 12px; font-family: Arial" transform="rotate(45, 60.0, 340)" x="60.0" y="340">08</text><text fill="#cdd6f4" fill-opacity="1" style="font-size: 12px; font-family: Arial" transform="rotate(45, 113.07692307692308, 340)" x="113.07692307692308" y="340">09</text><text fill="#cdd6f4" fill-opacity="1" style="font-size: 12px; font-family: Arial" transform="rotate(45, 166.15384615384616, 340)" x="166.15384615384616" y="340">10</text><text fill="#cdd6f4" fill-opacity="1" style="font-size: 12px; font-family: Arial" transform="rotate(45, 219.23076923076923, 340)" x="219.23076923076923" y="340">11</text><text fill="#cdd6f4" fill-opacity="1" style="font-size: 12px; font-family: Arial" transform="rotate(45, 272.3076923076923, 340)" x="272.3076923076923" y="340">12</text><text fill="#cdd6f4" fill-opacity="1" style="font-size: 12px; font-family: Arial" transform="rotate(45, 325.3846153846154, 340)" x="325.3846153846154" y="340">13</text><text fill="#cdd6f4" fill-opacity="1" style="font-size: 12px; font-family: Arial" transform="rotate(45, 378.46153846153845, 340)" x="378.46153846153845" y="340">14</text><text fill="#cdd6f4" fill-opacity="1" style="font-size: 12px; font-family: Arial" transform="rotate(45, 431.53846153846155, 340)" x="431.53846153846155" y="340">15</text><text fill="#cdd6f4" fill-opacity="1" style="font-size: 12px; font-family: Arial" transform="rotate(45, 484.61538461538464, 340)" x="484.61538461538464" y="340">16</text><text fill="#cdd6f4" fill-opacity="1" style="font-size: 12px; font-family: Arial" transform="rotate(45, 537.6923076923077, 340)" x="537.6923076923077" y="340">17</text><text fill="#cdd6f4" fill-opacity="1" style="font-size: 12px; font-family: Arial" transform="rotate(45, 590.7692307692308, 340)" x="590.7692307692308" y="340">18</text><text fill="#cdd6f4" fill-opacity="1" style="font-size: 12px; font-family: Arial" transform="rotate(45, 643.8461538461539, 340)" x="643.8461538461539" y="340">19</text><text fill="#cdd6f4" fill-opacity="1" style="font-size: 12px; font-family: Arial" transform="rotate(45, 696.9230769230769, 340)" x="696.9230769230769" y="340">20</text><text fill="#cdd6f4" fill-opacity="1" style="font-size: 12px; font-family: Arial" transform="rotate(45, 750.0, 340)" x="750.0" y="340">21</text><text fill="#cdd6f4" fill-opacity="1" style="font-size: 14px; font-family: Arial" text-anchor="middle" x="400.0" y="373.3333333333333">Days</text><text fill="#cdd6f4" fill-opacity="1" style="font-size: 14px; font-family: Arial" text-anchor="middle" transform="rotate(-90, 20.0, 200.0)" x="20.0" y="200.0">Count</text><line stroke="#8aadf4" stroke-opacity="0.4" stroke-width="3" x1="340.0" x2="360.0" y1="388.3333333333333" y2="388.3333333333333" /><text fill="#cdd6f4" fill-opacity="1" style="font-size: 12px; font-family: Arial" x="370.0" y="393.3333333333333">Clones</text><line stroke="#cba6f7" stroke-opacity="0.4" stroke-width="3" x1="440.0" x2="460.0" y1="388.3333333333333" y2="388.3333333333333" /><text fill="#cdd6f4" fill-opacity="1" style="font-size: 12px; font-family: Arial" x="470.0" y="393.3333333333333">Views</text></svg>